<svg width="56" height="56" viewBox="0 0 56 56" fill="none" xmlns="http://www.w3.org/2000/svg">
<circle cx="28" cy="28" r="28" fill="black"/>
<path d="M32.7916 23.6953C34.5708 23.6953 36.277 24.4395 37.5351 25.7642C38.7932 27.0888 39.4999 28.8855 39.4999 30.7588V38.9996H35.0277V30.7588C35.0277 30.1344 34.7921 29.5355 34.3728 29.094C33.9534 28.6524 33.3846 28.4043 32.7916 28.4043C32.1985 28.4043 31.6298 28.6524 31.2104 29.094C30.7911 29.5355 30.5555 30.1344 30.5555 30.7588V38.9996H26.0833V30.7588C26.0833 28.8855 26.79 27.0888 28.0481 25.7642C29.3061 24.4395 31.0124 23.6953 32.7916 23.6953Z" fill="white" stroke="white" stroke-width="2" stroke-linecap="round" stroke-linejoin="round"/>
<path d="M21.2917 24.6523H16.5V39.0002H21.2917V24.6523Z" fill="white" stroke="white" stroke-width="2" stroke-linecap="round" stroke-linejoin="round"/>
<path d="M18.8958 21.7826C20.219 21.7826 21.2917 20.712 21.2917 19.3913C21.2917 18.0706 20.219 17 18.8958 17C17.5727 17 16.5 18.0706 16.5 19.3913C16.5 20.712 17.5727 21.7826 18.8958 21.7826Z" fill="white" stroke="white" stroke-width="2" stroke-linecap="round" stroke-linejoin="round"/>
</svg>
