<svg width="56" height="56" viewBox="0 0 56 56" fill="none" xmlns="http://www.w3.org/2000/svg">
<circle cx="28" cy="28" r="28" fill="black"/>
<path d="M39 17.0123C38.0424 17.8405 36.9821 18.4739 35.86 18.8882C35.2577 18.0392 34.4573 17.4374 33.567 17.1643C32.6767 16.8911 31.7395 16.9598 30.8821 17.3611C30.0247 17.7623 29.2884 18.4767 28.773 19.4077C28.2575 20.3387 27.9877 21.4413 28 22.5664V23.7924C26.2426 23.8483 24.5013 23.3704 22.931 22.4014C21.3607 21.4324 20.0103 20.0022 19 18.2384C19 18.2384 15 29.2729 24 34.1771C21.9405 35.8911 19.4872 36.7506 17 36.6293C26 42.7596 37 36.6293 37 22.5296C36.9991 22.1881 36.9723 21.8474 36.92 21.512C37.9406 20.2779 38.6608 18.7199 39 17.0123Z" fill="white" stroke="white" stroke-width="2" stroke-linecap="round" stroke-linejoin="round"/>
</svg>
